<svg width="24" height="24" viewBox="0 0 24 24" fill="none" xmlns="http://www.w3.org/2000/svg">
<g clip-path="url(#clip0_0_3465)">
<path fill-rule="evenodd" clip-rule="evenodd" d="M6.75 15H6C5.58579 15 5.25 14.6642 5.25 14.25V6.75C5.25 6.33579 5.58579 6 6 6H18C18.4142 6 18.75 6.33579 18.75 6.75V14.25C18.75 14.6642 18.4142 15 18 15H17.25C16.8358 15 16.5 15.3358 16.5 15.75C16.5 16.1642 16.8358 16.5 17.25 16.5H18C19.2426 16.5 20.25 15.4926 20.25 14.25V6.75C20.25 5.50736 19.2426 4.5 18 4.5H6C4.75736 4.5 3.75 5.50736 3.75 6.75V14.25C3.75 15.4926 4.75736 16.5 6 16.5H6.75C7.16421 16.5 7.5 16.1642 7.5 15.75C7.5 15.3358 7.16421 15 6.75 15ZM12.5762 13.7699L16.3262 18.2699C16.7333 18.7584 16.3859 19.5 15.75 19.5H8.25001C7.61413 19.5 7.26677 18.7584 7.67384 18.2699L11.4238 13.7699C11.7237 13.41 12.2763 13.41 12.5762 13.7699ZM14.1488 18H9.85135L12.0001 15.4215L14.1488 18Z" fill="#BDBDBD"/>
</g>
<defs>
<clipPath id="clip0_0_3465">
<rect width="24" height="24" fill="white"/>
</clipPath>
</defs>
</svg>
