<svg width="16" height="16" viewBox="0 0 16 16" fill="none" xmlns="http://www.w3.org/2000/svg">
<g clip-path="url(#clip0_0_3498)">
<path fill-rule="evenodd" clip-rule="evenodd" d="M9.84253 5.55883C10.2654 5.98573 10.852 6.25016 11.5003 6.25016C12.789 6.25016 13.8337 5.20549 13.8337 3.91683C13.8337 2.62816 12.789 1.5835 11.5003 1.5835C10.2117 1.5835 9.16699 2.62816 9.16699 3.91683C9.16699 4.13676 9.19742 4.34958 9.25429 4.55131L6.15812 6.35817C5.73526 5.93126 5.14868 5.66683 4.50033 5.66683C3.21166 5.66683 2.16699 6.7115 2.16699 8.00016C2.16699 9.28883 3.21166 10.3335 4.50033 10.3335C5.1488 10.3335 5.73548 10.069 6.15836 9.64192L9.25502 11.4464C9.19768 11.6489 9.16699 11.8626 9.16699 12.0835C9.16699 13.3722 10.2117 14.4168 11.5003 14.4168C12.789 14.4168 13.8337 13.3722 13.8337 12.0835C13.8337 10.7948 12.789 9.75016 11.5003 9.75016C10.8529 9.75016 10.2671 10.0138 9.84443 10.4396L6.74645 8.63432C6.80326 8.43268 6.83366 8.21997 6.83366 8.00016C6.83366 7.78024 6.80323 7.56742 6.74636 7.36568L9.84253 5.55883ZM10.5088 4.53198C10.7147 4.86308 11.0818 5.0835 11.5003 5.0835C12.1447 5.0835 12.667 4.56116 12.667 3.91683C12.667 3.2725 12.1447 2.75016 11.5003 2.75016C10.856 2.75016 10.3337 3.2725 10.3337 3.91683C10.3337 4.11943 10.3853 4.30997 10.4761 4.476C10.4821 4.485 10.4878 4.49422 10.4933 4.50365C10.4988 4.51301 10.5039 4.52246 10.5088 4.53198ZM5.4918 7.38496C5.49669 7.39451 5.50187 7.40397 5.50734 7.41335C5.51285 7.42279 5.51859 7.43202 5.52453 7.44104C5.61536 7.60706 5.66699 7.79758 5.66699 8.00016C5.66699 8.20275 5.61536 8.39328 5.52453 8.5593C5.51851 8.56842 5.51272 8.57775 5.50715 8.5873C5.50175 8.59657 5.49664 8.60592 5.49181 8.61534C5.28595 8.94642 4.91888 9.16683 4.50033 9.16683C3.85599 9.16683 3.33366 8.64449 3.33366 8.00016C3.33366 7.35583 3.85599 6.8335 4.50033 6.8335C4.91887 6.8335 5.28594 7.05389 5.4918 7.38496ZM10.4993 11.4964C10.487 11.5174 10.4736 11.5375 10.4592 11.5564C10.3789 11.7147 10.3337 11.8938 10.3337 12.0835C10.3337 12.7278 10.856 13.2502 11.5003 13.2502C12.1447 13.2502 12.667 12.7278 12.667 12.0835C12.667 11.4392 12.1447 10.9168 11.5003 10.9168C11.0962 10.9168 10.74 11.1223 10.5306 11.4346C10.5215 11.4555 10.5111 11.4761 10.4993 11.4964Z" fill="white"/>
</g>
<defs>
<clipPath id="clip0_0_3498">
<rect width="16" height="16" fill="white"/>
</clipPath>
</defs>
</svg>
