<svg width="20" height="20" viewBox="0 0 20 20" fill="none" xmlns="http://www.w3.org/2000/svg">
<g clip-path="url(#clip0_2460_5516)">
<path d="M19 5.5V10C19 10.4142 18.6642 10.75 18.25 10.75C17.8358 10.75 17.5 10.4142 17.5 10V7.31066L11.6553 13.1553C11.3624 13.4482 10.8876 13.4482 10.5947 13.1553L7.375 9.93566L2.28033 15.0303C1.98744 15.3232 1.51256 15.3232 1.21967 15.0303C0.926777 14.7374 0.926777 14.2626 1.21967 13.9697L6.84467 8.34467C7.13756 8.05178 7.61244 8.05178 7.90533 8.34467L11.125 11.5643L16.4393 6.25H13.75C13.3358 6.25 13 5.91421 13 5.5C13 5.08579 13.3358 4.75 13.75 4.75H18.25C18.3517 4.75 18.4487 4.77024 18.5371 4.80691C18.6255 4.84351 18.7084 4.89776 18.7803 4.96967C18.8522 5.04158 18.9065 5.12445 18.9431 5.21291C18.9751 5.29009 18.9946 5.37376 18.999 5.46141C18.9997 5.47419 19 5.48706 19 5.5Z" fill="#795DE3"/>
</g>
<defs>
<clipPath id="clip0_2460_5516">
<rect width="20" height="20" fill="white"/>
</clipPath>
</defs>
</svg>
