<svg width="32" height="32" viewBox="0 0 32 32" fill="none" xmlns="http://www.w3.org/2000/svg">
<g clip-path="url(#clip0_2460_4582)">
<path fill-rule="evenodd" clip-rule="evenodd" d="M15.9993 28.8337C8.91169 28.8337 3.16602 23.088 3.16602 16.0003C3.16602 8.91267 8.91169 3.16699 15.9993 3.16699C23.087 3.16699 28.8327 8.91267 28.8327 16.0003C28.8327 23.088 23.087 28.8337 15.9993 28.8337ZM15.999 26.5C21.798 26.5 26.499 21.799 26.499 16C26.499 10.201 21.798 5.5 15.999 5.5C10.2 5.5 5.49902 10.201 5.49902 16C5.49902 21.799 10.2 26.5 15.999 26.5ZM21.3128 15.0296L14.3128 10.3629C13.5375 9.84607 12.499 10.4019 12.499 11.3337V20.667C12.499 21.5988 13.5375 22.1546 14.3128 21.6377L21.3128 16.9711C22.0055 16.5093 22.0055 15.4914 21.3128 15.0296Z" fill="white"/>
</g>
<defs>
<clipPath id="clip0_2460_4582">
<rect width="32" height="32" fill="white"/>
</clipPath>
</defs>
</svg>
