<svg width="16" height="16" viewBox="0 0 16 16" fill="none" xmlns="http://www.w3.org/2000/svg">
<g clip-path="url(#clip0_0_3514)">
<path fill-rule="evenodd" clip-rule="evenodd" d="M7.41699 8.92521V2.16683C7.41699 1.84466 7.67816 1.5835 8.00033 1.5835C8.32249 1.5835 8.58366 1.84466 8.58366 2.16683V8.9252L9.92118 7.58768C10.149 7.35988 10.5183 7.35988 10.7461 7.58768C10.9739 7.81549 10.9739 8.18484 10.7461 8.41264L8.41338 10.7454L8.4128 10.746M7.41699 8.92521L6.07947 7.58768C5.85167 7.35988 5.48232 7.35988 5.25451 7.58768C5.02671 7.81549 5.02671 8.18484 5.25451 8.41264L7.58785 10.746C7.64377 10.8019 7.70823 10.8441 7.77704 10.8726C7.84581 10.9011 7.92123 10.9168 8.00033 10.9168C8.07942 10.9168 8.15484 10.9011 8.22362 10.8726C8.29085 10.8447 8.35394 10.8038 8.40898 10.7498M2.16699 10.9168V12.6668C2.16699 13.6333 2.95049 14.4168 3.91699 14.4168H12.0837C13.0502 14.4168 13.8337 13.6333 13.8337 12.6668V10.9168C13.8337 10.5947 13.5725 10.3335 13.2503 10.3335C12.9282 10.3335 12.667 10.5947 12.667 10.9168V12.6668C12.667 12.989 12.4058 13.2502 12.0837 13.2502H3.91699C3.59483 13.2502 3.33366 12.989 3.33366 12.6668V10.9168C3.33366 10.5947 3.07249 10.3335 2.75033 10.3335C2.42816 10.3335 2.16699 10.5947 2.16699 10.9168Z" fill="white"/>
</g>
<defs>
<clipPath id="clip0_0_3514">
<rect width="16" height="16" fill="white"/>
</clipPath>
</defs>
</svg>
