<svg width="16" height="16" viewBox="0 0 16 16" fill="none" xmlns="http://www.w3.org/2000/svg">
<g clip-path="url(#clip0_0_3520)">
<path fill-rule="evenodd" clip-rule="evenodd" d="M12.0837 2.1665H3.91699C2.95049 2.1665 2.16699 2.95001 2.16699 3.9165V12.0832C2.16699 13.0497 2.95049 13.8332 3.91699 13.8332H12.0837C13.0502 13.8332 13.8337 13.0497 13.8337 12.0832V3.9165C13.8337 2.95001 13.0502 2.1665 12.0837 2.1665ZM3.33366 3.9165C3.33366 3.59434 3.59483 3.33317 3.91699 3.33317H12.0837C12.4058 3.33317 12.667 3.59434 12.667 3.9165V12.0832C12.667 12.4053 12.4058 12.6665 12.0837 12.6665H3.91699C3.59483 12.6665 3.33366 12.4053 3.33366 12.0832V3.9165ZM7.41699 8.58317V10.3332C7.41699 10.6553 7.67816 10.9165 8.00033 10.9165C8.32249 10.9165 8.58366 10.6553 8.58366 10.3332V8.58317H10.3337C10.6558 8.58317 10.917 8.322 10.917 7.99984C10.917 7.67767 10.6558 7.4165 10.3337 7.4165H8.58366V5.6665C8.58366 5.34434 8.32249 5.08317 8.00033 5.08317C7.67816 5.08317 7.41699 5.34434 7.41699 5.6665V7.4165H5.66699C5.34483 7.4165 5.08366 7.67767 5.08366 7.99984C5.08366 8.322 5.34483 8.58317 5.66699 8.58317H7.41699Z" fill="white"/>
</g>
<defs>
<clipPath id="clip0_0_3520">
<rect width="16" height="16" fill="white"/>
</clipPath>
</defs>
</svg>
