<svg width="24" height="24" viewBox="0 0 24 24" fill="none" xmlns="http://www.w3.org/2000/svg">
<g clip-path="url(#clip0_0_3472)">
<path fill-rule="evenodd" clip-rule="evenodd" d="M4.5 16.5C3.5 16.5 3.5 15 4.5 15C5.32843 15 6 14.3284 6 13.5V9.75C6 6.43629 8.68629 3.75 12 3.75C15.3137 3.75 18 6.43629 18 9.75V13.5C18 14.3284 18.6716 15 19.5 15C20.5 15 20.5 16.5 19.5 16.5H4.5ZM16.5 13.5V9.75C16.5 7.26472 14.4853 5.25 12 5.25C9.51473 5.25 7.50001 7.26472 7.50001 9.75V13.5C7.50001 14.0464 7.35392 14.5587 7.09866 15H16.9014C16.6461 14.5587 16.5 14.0464 16.5 13.5ZM12 20.2473C12.8022 20.2473 13.5437 19.8202 13.9462 19.1263C14.2363 18.6263 13.8755 18 13.2975 18H10.7025C10.1245 18 9.7637 18.6263 10.0537 19.1263C10.4563 19.8202 11.1978 20.2473 12 20.2473Z" fill="#BDBDBD"/>
</g>
<defs>
<clipPath id="clip0_0_3472">
<rect width="24" height="24" fill="white"/>
</clipPath>
</defs>
</svg>
