<svg width="16" height="16" viewBox="0 0 16 16" fill="none" xmlns="http://www.w3.org/2000/svg">
<g clip-path="url(#clip0_0_3484)">
<path fill-rule="evenodd" clip-rule="evenodd" d="M7.99967 14.4168C4.45585 14.4168 1.58301 11.544 1.58301 8.00016C1.58301 4.45634 4.45585 1.5835 7.99967 1.5835C11.5435 1.5835 14.4163 4.45634 14.4163 8.00016C14.4163 11.544 11.5435 14.4168 7.99967 14.4168ZM7.99967 13.2502C10.8992 13.2502 13.2497 10.8997 13.2497 8.00016C13.2497 5.10067 10.8992 2.75016 7.99967 2.75016C5.10018 2.75016 2.74967 5.10067 2.74967 8.00016C2.74967 10.8997 5.10018 13.2502 7.99967 13.2502ZM10.6566 7.5148L7.15658 5.18147C6.76893 4.92303 6.24967 5.20092 6.24967 5.66683V10.3335C6.24967 10.7994 6.76893 11.0773 7.15658 10.8189L10.6566 8.48552C11.0029 8.25463 11.0029 7.7457 10.6566 7.5148Z" fill="#BDBDBD"/>
</g>
<defs>
<clipPath id="clip0_0_3484">
<rect width="16" height="16" fill="white"/>
</clipPath>
</defs>
</svg>
